<?xml version="1.0" standalone="no"?>
<svg viewBox="0 0 200 200" xmlns="http://www.w3.org/2000/svg">
  <path fill="#90CAFF" d="M46.1,-71.8C59.6,-63,70.5,-50.1,73.3,-35.9C76,-21.7,70.6,-6.1,67.6,9.2C64.5,24.5,63.8,39.6,55.9,48.2C48.1,56.9,33,59.2,19.2,61.4C5.4,63.6,-7.3,65.8,-17.1,61.4C-26.8,57,-33.7,46.1,-44.5,36.8C-55.2,27.5,-69.9,19.8,-74.5,8.8C-79.1,-2.3,-73.7,-16.7,-67.9,-31.6C-62,-46.4,-55.7,-61.7,-44.4,-71.5C-33,-81.4,-16.5,-85.8,-0.1,-85.6C16.3,-85.4,32.5,-80.7,46.1,-71.8Z" transform="translate(100 100)" />
</svg>
